<?xml version="1.0" encoding="UTF-8" standalone="no"?>
<svg
   xmlns:dc="http://purl.org/dc/elements/1.1/"
   xmlns:cc="http://creativecommons.org/ns#"
   xmlns:rdf="http://www.w3.org/1999/02/22-rdf-syntax-ns#"
   xmlns:svg="http://www.w3.org/2000/svg"
   xmlns="http://www.w3.org/2000/svg"
   xmlns:sodipodi="http://sodipodi.sourceforge.net/DTD/sodipodi-0.dtd"
   xmlns:inkscape="http://www.inkscape.org/namespaces/inkscape"
   height="384"
   viewBox="-21 0 287.99999 287.99999"
   width="384"
   version="1.1"
   id="svg10"
   sodipodi:docname="java-script.svg"
   inkscape:version="1.0.1 (3bc2e813f5, 2020-09-07)"
   inkscape:export-filename="/home/sunil_arc/Projects/trainings/screenshots/assets/js-script.png"
   inkscape:export-xdpi="96"
   inkscape:export-ydpi="96">
  <metadata
     id="metadata16">
    <rdf:RDF>
      <cc:Work
         rdf:about="">
        <dc:format>image/svg+xml</dc:format>
        <dc:type
           rdf:resource="http://purl.org/dc/dcmitype/StillImage" />
        <dc:title></dc:title>
      </cc:Work>
    </rdf:RDF>
  </metadata>
  <defs
     id="defs14" />
  <sodipodi:namedview
     pagecolor="#ffffff"
     bordercolor="#666666"
     borderopacity="1"
     objecttolerance="10"
     gridtolerance="10"
     guidetolerance="10"
     inkscape:pageopacity="0"
     inkscape:pageshadow="2"
     inkscape:window-width="1040"
     inkscape:window-height="1037"
     id="namedview12"
     showgrid="false"
     units="px"
     inkscape:zoom="0.90673828"
     inkscape:cx="308.24771"
     inkscape:cy="341.33333"
     inkscape:window-x="7"
     inkscape:window-y="32"
     inkscape:window-maximized="0"
     inkscape:current-layer="svg10"
     inkscape:document-rotation="0" />
  <path
     d="m 236.5256,29.700296 c -1.00655,-1.009763 -2.42619,-1.592866 -3.92922,-1.592866 H 10.170826 c -1.5049716,0 -2.9246096,0.583103 -3.9311567,1.592866 -1.0046079,1.029319 -1.4933359,2.378633 -1.3343052,3.747503 L 26.089396,227.62461 c 0.211395,1.90397 1.6097,3.51462 3.589824,4.12616 l 95.32524,29.1267 c 0.55079,0.15644 1.10157,0.24356 1.67369,0.24356 0.63613,0 1.26062,-0.10667 1.86377,-0.31111 l 84.73419,-29.1267 c 1.88509,-0.63999 3.2097,-2.22219 3.39976,-4.05861 L 237.8599,33.447799 c 0.15903,-1.36887 -0.3297,-2.718184 -1.3343,-3.747503 z m 0,0"
     fill="#ffc107"
     id="path2"
     style="stroke-width:0.475345;fill:#1a1a1a;stroke:#cccccc" />
  <path
     d="m 126.67815,261.12103 c -0.57212,0 -1.1229,-0.0871 -1.67369,-0.24356 l -95.32524,-29.1267 c -1.980124,-0.60088 -3.378429,-2.22219 -3.589824,-4.12616 L 4.9053641,33.447799 C 4.7463334,32.078929 5.2350614,30.729615 6.2396693,29.700296 7.2462164,28.690533 8.6658544,28.10743 10.170826,28.10743 H 232.59638 c 1.50303,0 2.92267,0.583103 3.92922,1.592866 1.0046,1.018653 1.49333,2.378633 1.3343,3.747503 L 216.67587,227.62461 c -0.20169,1.83642 -1.52437,3.41862 -3.39976,4.05861 l -84.73419,29.1267 c -0.60315,0.20444 -1.22764,0.31111 -1.86377,0.31111 z m -90.399162,-37.59236 90.294442,27.5925 79.89152,-27.46628 20.27251,-185.839153 H 16.027806 Z m 0,0"
     id="path4"
     style="stroke-width:0.475345;fill:#cccccc" />
  <path
     d="m 137.27114,207.72267 c -2.21479,0 -4.28025,-1.29243 -5.03273,-3.32084 -0.92121,-2.54397 0.58375,-5.29237 3.3474,-6.14569 l 28.80004,-8.79632 8.90765,-44.84559 h -36.02236 c -2.92461,0 -5.29649,-2.17419 -5.29649,-4.85504 V 81.505786 c 0,-2.679074 2.37188,-4.853264 5.29649,-4.853264 h 52.95717 c 1.63104,0 3.17868,0.687991 4.18329,1.863085 1.00654,1.175094 1.35564,2.709293 0.96387,4.165273 l -5.29455,19.41839 c -0.70982,2.60086 -3.5491,4.15461 -6.4194,3.53418 -2.84898,-0.65066 -4.56534,-3.2924 -3.85552,-5.884365 l 3.63248,-13.388256 h -40.87279 v 48.545091 h 37.07158 c 1.56703,0 3.06037,0.6311 4.06691,1.74753 1.00655,1.09688 1.42934,2.56174 1.14425,3.98039 l -10.59299,53.39836 c -0.34909,1.74753 -1.70473,3.17506 -3.53746,3.73861 l -31.77508,9.70831 c -0.56048,0.16533 -1.11127,0.24355 -1.67176,0.24355 z m 0,0"
     id="path6"
     style="stroke-width:0.475345;fill:#cccccc" />
  <path
     d="m 116.08711,207.72267 c -0.48679,0 -0.97552,-0.0587 -1.46231,-0.19555 l -37.069627,-9.70831 c -1.908366,-0.49422 -3.337704,-1.93242 -3.739157,-3.71906 l -5.296494,-24.27166 c -0.581816,-2.63107 1.281941,-5.18392 4.161945,-5.70836 2.722916,-0.55288 5.645587,1.16443 6.229345,3.81506 l 4.660372,21.3597 27.219426,7.1359 V 86.360829 H 52.536952 c -2.922671,0 -5.296493,-2.17419 -5.296493,-4.855043 0,-2.679074 2.373822,-4.853264 5.296493,-4.853264 h 63.550158 c 2.92267,0 5.29649,2.17419 5.29649,4.853264 V 202.86763 c 0,1.52353 -0.77382,2.96173 -2.10812,3.87372 -0.93285,0.65066 -2.05576,0.98132 -3.18837,0.98132 z m 0,0"
     id="path8"
     style="stroke-width:0.475345;fill:#e6e6e6" />
</svg>
