<?xml version="1.0" encoding="UTF-8" standalone="no"?>
<svg
   xmlns:dc="http://purl.org/dc/elements/1.1/"
   xmlns:cc="http://creativecommons.org/ns#"
   xmlns:rdf="http://www.w3.org/1999/02/22-rdf-syntax-ns#"
   xmlns:svg="http://www.w3.org/2000/svg"
   xmlns="http://www.w3.org/2000/svg"
   xmlns:sodipodi="http://sodipodi.sourceforge.net/DTD/sodipodi-0.dtd"
   xmlns:inkscape="http://www.inkscape.org/namespaces/inkscape"
   height="384"
   viewBox="0 0 287.99999 287.99999"
   width="384"
   version="1.1"
   id="svg6"
   sodipodi:docname="python.svg"
   inkscape:version="1.0.1 (3bc2e813f5, 2020-09-07)"
   inkscape:export-filename="/home/sunil_arc/Projects/trainings/screenshots/assets/python_light.png"
   inkscape:export-xdpi="96"
   inkscape:export-ydpi="96">
  <metadata
     id="metadata12">
    <rdf:RDF>
      <cc:Work
         rdf:about="">
        <dc:format>image/svg+xml</dc:format>
        <dc:type
           rdf:resource="http://purl.org/dc/dcmitype/StillImage" />
        <dc:title></dc:title>
      </cc:Work>
    </rdf:RDF>
  </metadata>
  <defs
     id="defs10" />
  <sodipodi:namedview
     pagecolor="#ffffff"
     bordercolor="#666666"
     borderopacity="1"
     objecttolerance="10"
     gridtolerance="10"
     guidetolerance="10"
     inkscape:pageopacity="0"
     inkscape:pageshadow="2"
     inkscape:window-width="1040"
     inkscape:window-height="1037"
     id="namedview8"
     showgrid="false"
     units="px"
     inkscape:zoom="0.90673828"
     inkscape:cx="308.24771"
     inkscape:cy="341.33333"
     inkscape:window-x="7"
     inkscape:window-y="32"
     inkscape:window-maximized="0"
     inkscape:current-layer="svg6"
     inkscape:document-rotation="0" />
  <g
     id="g16"
     transform="matrix(0.50272378,0,0,0.50272378,15.613615,15.260298)"
     style="fill:#e6e6e6">
    <path
       d="m 116,296 c 0,-30.32813 24.67187,-55 55,-55 h 170 c 13.78516,0 25,-11.21484 25,-25 V 75 C 366,33.644531 332.35547,0 291,0 h -70 c -41.35547,0 -75,33.644531 -75,75 v 41 h 110 c 8.28516,0 15,6.71484 15,15 0,8.28516 -6.71484,15 -15,15 H 75 C 33.644531,146 0,179.64453 0,221 v 70 c 0,41.35547 33.644531,75 75,75 h 41 z M 221,76 c -8.28516,0 -15,-6.714844 -15,-15 0,-8.285156 6.71484,-15 15,-15 8.28516,0 15,6.714844 15,15 0,8.285156 -6.71484,15 -15,15 z m 0,0"
       id="path2"
       style="fill:#e6e6e6" />
    <path
       d="m 437,146 h -41 v 70 c 0,30.32812 -24.67188,55 -55,55 H 171 c -13.78516,0 -25,11.21484 -25,25 v 141 c 0,41.35547 33.64453,75 75,75 h 70 c 41.35547,0 75,-33.64453 75,-75 V 396 H 256 c -8.28516,0 -15,-6.71484 -15,-15 0,-8.28516 6.71484,-15 15,-15 h 181 c 41.35547,0 75,-33.64453 75,-75 v -70 c 0,-41.35547 -33.64453,-75 -75,-75 z M 291,436 c 8.28516,0 15,6.71484 15,15 0,8.28516 -6.71484,15 -15,15 -8.28516,0 -15,-6.71484 -15,-15 0,-8.28516 6.71484,-15 15,-15 z m 0,0"
       id="path4"
       style="fill:#e6e6e6" />
  </g>
</svg>
