<?xml version="1.0" encoding="UTF-8" standalone="no"?>
<svg
   xmlns:dc="http://purl.org/dc/elements/1.1/"
   xmlns:cc="http://creativecommons.org/ns#"
   xmlns:rdf="http://www.w3.org/1999/02/22-rdf-syntax-ns#"
   xmlns:svg="http://www.w3.org/2000/svg"
   xmlns="http://www.w3.org/2000/svg"
   xmlns:sodipodi="http://sodipodi.sourceforge.net/DTD/sodipodi-0.dtd"
   xmlns:inkscape="http://www.inkscape.org/namespaces/inkscape"
   version="1.1"
   id="Capa_1"
   x="0px"
   y="0px"
   viewBox="0 0 384 384"
   xml:space="preserve"
   sodipodi:docname="scala.svg"
   width="384"
   height="384"
   inkscape:version="1.0.1 (3bc2e813f5, 2020-09-07)"
   inkscape:export-filename="/home/sunil_arc/Projects/trainings/screenshots/assets/scala.png"
   inkscape:export-xdpi="96"
   inkscape:export-ydpi="96"><metadata
   id="metadata51"><rdf:RDF><cc:Work
       rdf:about=""><dc:format>image/svg+xml</dc:format><dc:type
         rdf:resource="http://purl.org/dc/dcmitype/StillImage" /><dc:title></dc:title></cc:Work></rdf:RDF></metadata><defs
   id="defs49" /><sodipodi:namedview
   pagecolor="#ffffff"
   bordercolor="#666666"
   borderopacity="1"
   objecttolerance="10"
   gridtolerance="10"
   guidetolerance="10"
   inkscape:pageopacity="0"
   inkscape:pageshadow="2"
   inkscape:window-width="1040"
   inkscape:window-height="1037"
   id="namedview47"
   showgrid="false"
   inkscape:zoom="1.2089844"
   inkscape:cx="231.18578"
   inkscape:cy="256"
   inkscape:window-x="7"
   inkscape:window-y="32"
   inkscape:window-maximized="0"
   inkscape:current-layer="Capa_1"
   inkscape:document-rotation="0" />




<path
   style="fill:#333333;stroke-width:0.609659"
   d="m 348.04952,188.89139 c 0,45.08243 -19.11707,85.70643 -49.68841,114.19396 -27.87664,25.98487 -65.27006,41.87867 -106.38422,41.87867 -41.12026,0 -78.51429,-15.90051 -106.390327,-41.88477 -30.571336,-28.48813 -49.682308,-69.10543 -49.682308,-114.18786 0,-86.1966 69.876035,-156.072631 156.072635,-156.072631 86.1966,0 156.07263,69.876031 156.07263,156.072631 z"
   id="path2" /><path
   style="fill:#b3b3b3;stroke-width:0.609659"
   d="m 298.3605,143.59985 c 0,-8.39866 -19.13048,-20.29737 -53.42561,-18.6641 -34.29513,1.63267 -154.91245,19.73527 -159.345278,45.44579 0,0 19.072568,8.27185 94.662318,13.34604 75.58976,5.07419 111.10969,-24.49609 111.10969,-24.49609 z"
   id="path4" /><path
   style="fill:#ffffff;stroke-width:0.609659"
   d="m 298.3605,117.42232 c -3.49944,20.29737 -69.29076,31.02919 -115.0176,38.49446 -45.72745,7.46527 -84.921192,8.39927 -97.753288,14.46537 V 91.10701 C 98.421099,85.040906 137.61606,84.108128 183.34351,76.642857 229.07096,69.177586 294.86167,58.444544 298.3605,38.147786 Z"
   id="path6" /><path
   style="fill:#999999;stroke-width:0.609659"
   d="m 298.3605,249.0519 c 0,-8.39865 -19.13048,-20.29736 -53.42561,-18.66409 -34.29513,1.63267 -154.91245,19.73526 -159.345278,45.44579 0,0 19.072568,8.27185 94.662318,13.34604 75.58976,5.0748 111.10969,-24.4967 111.10969,-24.4967 z"
   id="path8" /><g
   id="g14"
   style="fill:#ffffff"
   transform="matrix(0.60965872,0,0,0.60965872,35.904255,32.818759)">
	<path
   style="fill:#ffffff"
   d="m 430.497,311.741 c -5.74,33.293 -113.655,50.896 -188.659,63.141 -75.005,12.245 -139.293,13.777 -160.341,23.726 V 268.577 c 21.047,-9.95 85.337,-11.48 160.342,-23.725 75.005,-12.245 182.919,-29.849 188.659,-63.141 v 130.03 z"
   id="path10" />
	<path
   style="fill:#ffffff"
   d="m 430.498,354.68 v 88.628 C 384.773,485.93 323.438,512 256,512 188.552,512 127.216,485.919 81.492,443.298 v -1.755 c 21.055,-9.947 85.337,-11.473 160.35,-23.719 75.002,-12.247 182.919,-29.853 188.656,-63.144 z"
   id="path12" />
</g>
<g
   id="g16">
</g>
<g
   id="g18">
</g>
<g
   id="g20">
</g>
<g
   id="g22">
</g>
<g
   id="g24">
</g>
<g
   id="g26">
</g>
<g
   id="g28">
</g>
<g
   id="g30">
</g>
<g
   id="g32">
</g>
<g
   id="g34">
</g>
<g
   id="g36">
</g>
<g
   id="g38">
</g>
<g
   id="g40">
</g>
<g
   id="g42">
</g>
<g
   id="g44">
</g>
</svg>
